<mxfile host="app.diagrams.net" modified="2024-07-20T17:50:25.054Z" agent="Mozilla/5.0 (X11; Ubuntu; Linux x86_64; rv:128.0) Gecko/20100101 Firefox/128.0" version="24.7.2" etag="5srKpD40ujec4lKLmWEq" type="github">
  <diagram name="Page-1" id="povJLxmm60_3jmOiNp00">
    <mxGraphModel>
      <root>
        <mxCell id="0" />
        <mxCell id="1" parent="0" />
      </root>
    </mxGraphModel>
  </diagram>
</mxfile>
